<svg width="538.3px" height="102.4px" xmlns="http://www.w3.org/2000/svg" viewBox="-19.16502685546874 23.796238708496098 538.3300537109375 102.4075225830078" style="background: rgba(0, 0, 0, 0)" preserveAspectRatio="xMidYMid"><defs><linearGradient id="editing-gradient-gradient" x1="0" x2="1" y1="0.5" y2="0.5" gradientUnits="objectBoundingBox"><stop offset="0" stop-color="#836ffd"></stop><stop offset="1" stop-color="rgba(32%, 24%, 79%, 0.58)"></stop></linearGradient></defs><g><g transform="matrix(1.4,0,0,1.7,18.1,195.9)"><path d="M -4 -53.7 L -15.4 -53.7 L -8.8 -88 L 2.7 -88 L -4 -53.7 Z M 41.2 -52.7 L 41.2 -52.7 L 41.2 -52.7 Q 34.9 -52.7 34.9 -57.6 L 34.9 -57.6 L 34.9 -57.6 Q 34.9 -59.7 35.9 -63.8 L 35.9 -63.8 L 35.9 -63.8 Q 36.8 -68 37.1 -69.6 L 37.1 -69.6 L 37.1 -69.6 Q 37.8 -73.4 37.8 -74.6 L 37.8 -74.6 L 37.8 -74.6 Q 37.8 -77.3 35.8 -77.3 L 35.8 -77.3 L 35.8 -77.3 Q 34.5 -77.3 33.3 -75.5 L 33.3 -75.5 L 33.3 -75.5 Q 32 -73.7 31.5 -70.1 L 31.5 -70.1 L 28.2 -53.7 L 18.1 -52.7 L 20.9 -66.8 L 20.9 -66.8 Q 21.4 -69.1 21.8 -71.8 L 21.8 -71.8 L 21.8 -71.8 Q 22.2 -74.5 22.2 -74.9 L 22.2 -74.9 L 22.2 -74.9 Q 22.2 -77.3 20.4 -77.3 L 20.4 -77.3 L 20.4 -77.3 Q 19.2 -77.3 17.9 -75.5 L 17.9 -75.5 L 17.9 -75.5 Q 16.6 -73.7 15.9 -70.1 L 15.9 -70.1 L 12.7 -53.7 L 2.5 -52.7 L 8 -80.2 L 16.4 -81.3 L 15.6 -76 L 15.6 -76 Q 16.9 -78.8 19.4 -80 L 19.4 -80 L 19.4 -80 Q 21.9 -81.3 25.8 -81.3 L 25.8 -81.3 L 25.8 -81.3 Q 28 -81.3 29.5 -80.2 L 29.5 -80.2 L 29.5 -80.2 Q 30.9 -79.1 31.4 -77.3 L 31.4 -77.3 L 31.4 -77.3 Q 32.3 -79.1 34.6 -80.2 L 34.6 -80.2 L 34.6 -80.2 Q 36.8 -81.3 39.6 -81.3 L 39.6 -81.3 L 39.6 -81.3 Q 42.4 -81.3 43.8 -80.7 L 43.8 -80.7 L 43.8 -80.7 Q 45.1 -80.1 46 -79.1 L 46 -79.1 L 46 -79.1 Q 47.4 -77.3 47.4 -73.9 L 47.4 -73.9 L 47.4 -73.9 Q 47.4 -70.6 46 -63.8 L 46 -63.8 L 46 -63.8 Q 45.2 -60.5 45.2 -59.3 L 45.2 -59.3 L 45.2 -59.3 Q 45.2 -58.1 45.9 -57.3 L 45.9 -57.3 L 45.9 -57.3 Q 46.7 -56.6 47.7 -56.5 L 47.7 -56.5 L 47.7 -56.5 Q 47.2 -54.7 45.4 -53.7 L 45.4 -53.7 L 45.4 -53.7 Q 43.6 -52.7 41.2 -52.7 Z M 54 -55.3 L 54 -55.3 L 54 -55.3 Q 52.7 -56.6 52.2 -58.7 L 52.2 -58.7 L 52.2 -58.7 Q 51.6 -60.9 51.6 -64.4 L 51.6 -64.4 L 51.6 -64.4 Q 51.6 -67.8 52.8 -71 L 52.8 -71 L 52.8 -71 Q 54 -74.2 56.2 -76.5 L 56.2 -76.5 L 56.2 -76.5 Q 60.7 -81.3 68.1 -81.3 L 68.1 -81.3 L 68.1 -81.3 Q 70.7 -81.3 72.6 -80.4 L 72.6 -80.4 L 81.5 -81.3 L 77.7 -61 L 77.7 -61 Q 77.5 -60.4 77.5 -59.2 L 77.5 -59.2 L 77.5 -59.2 Q 77.5 -58.1 78.2 -57.3 L 78.2 -57.3 L 78.2 -57.3 Q 78.9 -56.6 80 -56.5 L 80 -56.5 L 80 -56.5 Q 79.5 -54.7 77.6 -53.7 L 77.6 -53.7 L 77.6 -53.7 Q 75.7 -52.7 73.5 -52.7 L 73.5 -52.7 L 73.5 -52.7 Q 71.4 -52.7 70 -53.5 L 70 -53.5 L 70 -53.5 Q 68.5 -54.3 68.1 -55.6 L 68.1 -55.6 L 68.1 -55.6 Q 67.3 -54.3 65.5 -53.5 L 65.5 -53.5 L 65.5 -53.5 Q 63.8 -52.7 61.4 -52.7 L 61.4 -52.7 L 61.4 -52.7 Q 59 -52.7 57.1 -53.3 L 57.1 -53.3 L 57.1 -53.3 Q 55.2 -53.9 54 -55.3 Z M 64.9 -76.4 L 64.9 -76.4 L 64.9 -76.4 Q 64.3 -75.4 63.8 -73.8 L 63.8 -73.8 L 63.8 -73.8 Q 63.3 -72.3 62.4 -68 L 62.4 -68 L 62.4 -68 Q 61.6 -63.8 61.6 -60.8 L 61.6 -60.8 L 61.6 -60.8 Q 61.6 -57.8 62 -56.9 L 62 -56.9 L 62 -56.9 Q 62.5 -56 63.3 -56 L 63.3 -56 L 63.3 -56 Q 65 -56 66.2 -57.6 L 66.2 -57.6 L 66.2 -57.6 Q 67.5 -59.2 67.9 -62 L 67.9 -62 L 70.7 -77.2 L 70.7 -77.2 Q 69.6 -78.1 68.3 -78.1 L 68.3 -78.1 L 68.3 -78.1 Q 67 -78.1 66.3 -77.7 L 66.3 -77.7 L 66.3 -77.7 Q 65.5 -77.3 64.9 -76.4 Z M 87.8 -75.4 L 87.8 -75.4 L 87.8 -75.4 Q 89.6 -77.9 92.3 -79.6 L 92.3 -79.6 L 92.3 -79.6 Q 95 -81.3 98.2 -81.3 L 98.2 -81.3 L 98.2 -81.3 Q 101.5 -81.3 103.1 -80.2 L 103.1 -80.2 L 113.3 -81.3 L 109.7 -61.3 L 109.7 -61.3 Q 107.9 -51.1 104.1 -47.1 L 104.1 -47.1 L 104.1 -47.1 Q 100.4 -43.3 93.2 -43.3 L 93.2 -43.3 L 93.2 -43.3 Q 87.7 -43.3 84.6 -45 L 84.6 -45 L 84.6 -45 Q 81.5 -46.7 81.5 -49.6 L 81.5 -49.6 L 81.5 -49.6 Q 81.5 -51.7 83.1 -52.9 L 83.1 -52.9 L 83.1 -52.9 Q 84.7 -54.2 87.2 -54.2 L 87.2 -54.2 L 87.2 -54.2 Q 89.4 -54.2 91.1 -53.2 L 91.1 -53.2 L 91.1 -53.2 Q 92 -52.7 92.5 -51.9 L 92.5 -51.9 L 92.5 -51.9 Q 91.3 -50.9 91.3 -49.2 L 91.3 -49.2 L 91.3 -49.2 Q 91.3 -46.9 93.4 -46.9 L 93.4 -46.9 L 93.4 -46.9 Q 96.9 -46.9 98.9 -55.2 L 98.9 -55.2 L 98.9 -55.2 Q 99.4 -57.4 99.9 -59.6 L 99.9 -59.6 L 99.9 -59.6 Q 97.6 -56.8 92.3 -56.8 L 92.3 -56.8 L 92.3 -56.8 Q 88.6 -56.8 86.4 -58.5 L 86.4 -58.5 L 86.4 -58.5 Q 84.3 -60.3 84.3 -64.5 L 84.3 -64.5 L 84.3 -64.5 Q 84.3 -67.1 85.2 -70 L 85.2 -70 L 85.2 -70 Q 86.1 -72.9 87.8 -75.4 Z M 94.6 -64.3 L 94.6 -64.3 L 94.6 -64.3 Q 94.6 -60.8 96.4 -60.8 L 96.4 -60.8 L 96.4 -60.8 Q 97.7 -60.8 98.9 -62.1 L 98.9 -62.1 L 98.9 -62.1 Q 99.8 -63.2 100.2 -64.8 L 100.2 -64.8 L 102.8 -78.2 L 102.8 -78.2 Q 102.6 -78.2 102.3 -78.3 L 102.3 -78.3 L 102.3 -78.3 Q 101.8 -78.6 101.1 -78.6 L 101.1 -78.6 L 101.1 -78.6 Q 97.9 -78.6 96.1 -73.4 L 96.1 -73.4 L 96.1 -73.4 Q 94.6 -69.3 94.6 -64.3 Z M 136.4 -62.5 L 136.4 -62.5 L 136.4 -62.5 Q 137.6 -61.6 137.6 -59.7 L 137.6 -59.7 L 137.6 -59.7 Q 137.6 -57.7 136.7 -56.5 L 136.7 -56.5 L 136.7 -56.5 Q 135.7 -55.2 134.1 -54.4 L 134.1 -54.4 L 134.1 -54.4 Q 130.7 -52.7 127.1 -52.7 L 127.1 -52.7 L 127.1 -52.7 Q 123.6 -52.7 121.5 -53.4 L 121.5 -53.4 L 121.5 -53.4 Q 119.3 -54.2 117.9 -55.7 L 117.9 -55.7 L 117.9 -55.7 Q 115.2 -58.4 115.2 -63.5 L 115.2 -63.5 L 115.2 -63.5 Q 115.2 -71.3 119.5 -76.1 L 119.5 -76.1 L 119.5 -76.1 Q 124 -81.3 132 -81.3 L 132 -81.3 L 132 -81.3 Q 136.9 -81.3 139.4 -79.2 L 139.4 -79.2 L 139.4 -79.2 Q 141.2 -77.6 141.2 -75.1 L 141.2 -75.1 L 141.2 -75.1 Q 141.2 -65.9 125.4 -65.9 L 125.4 -65.9 L 125.4 -65.9 Q 125.2 -64.6 125.2 -63.4 L 125.2 -63.4 L 125.2 -63.4 Q 125.2 -61 126.2 -60.1 L 126.2 -60.1 L 126.2 -60.1 Q 127.3 -59.2 129.3 -59.2 L 129.3 -59.2 L 129.3 -59.2 Q 131.2 -59.2 133.4 -60.1 L 133.4 -60.1 L 133.4 -60.1 Q 135.5 -61 136.4 -62.5 Z M 125.7 -68.2 L 125.7 -68.2 L 125.7 -68.2 Q 129.4 -68.2 131.6 -70.4 L 131.6 -70.4 L 131.6 -70.4 Q 133.7 -72.6 133.7 -76.1 L 133.7 -76.1 L 133.7 -76.1 Q 133.7 -77.3 133.2 -78 L 133.2 -78 L 133.2 -78 Q 132.8 -78.6 131.9 -78.6 L 131.9 -78.6 L 131.9 -78.6 Q 131 -78.6 130.3 -78.3 L 130.3 -78.3 L 130.3 -78.3 Q 129.5 -77.9 128.8 -76.8 L 128.8 -76.8 L 128.8 -76.8 Q 126.8 -74.2 125.7 -68.2 Z M 158.5 -72 L 158.5 -72 L 158.5 -72 Q 159.2 -73.9 159.2 -75.5 L 159.2 -75.5 L 159.2 -75.5 Q 159.2 -78.6 156.7 -78.6 L 156.7 -78.6 L 156.7 -78.6 Q 155.4 -78.6 154.4 -77.4 L 154.4 -77.4 L 154.4 -77.4 Q 153.3 -76.3 153.3 -74.8 L 153.3 -74.8 L 153.3 -74.8 Q 153.3 -73.8 154.1 -72.9 L 154.1 -72.9 L 154.1 -72.9 Q 155.3 -71.8 158.4 -69.9 L 158.4 -69.9 L 158.4 -69.9 Q 161.5 -68 162.6 -66.5 L 162.6 -66.5 L 162.6 -66.5 Q 163.8 -65 163.8 -62.9 L 163.8 -62.9 L 163.8 -62.9 Q 163.8 -60.8 162.8 -58.9 L 162.8 -58.9 L 162.8 -58.9 Q 161.8 -56.9 160 -55.6 L 160 -55.6 L 160 -55.6 Q 156.1 -52.7 149.8 -52.7 L 149.8 -52.7 L 149.8 -52.7 Q 146.4 -52.7 143.8 -54.4 L 143.8 -54.4 L 143.8 -54.4 Q 141.2 -56.1 141.2 -58.2 L 141.2 -58.2 L 141.2 -58.2 Q 141.2 -60.2 142.7 -61.4 L 142.7 -61.4 L 142.7 -61.4 Q 144.2 -62.6 146.4 -62.6 L 146.4 -62.6 L 146.4 -62.6 Q 148.6 -62.6 149.9 -61.8 L 149.9 -61.8 L 149.9 -61.8 Q 149.2 -60 149.2 -58.9 L 149.2 -58.9 L 149.2 -58.9 Q 149.2 -55.5 152.2 -55.5 L 152.2 -55.5 L 152.2 -55.5 Q 153.4 -55.5 154.2 -56.2 L 154.2 -56.2 L 154.2 -56.2 Q 155.1 -57 155.1 -58.4 L 155.1 -58.4 L 155.1 -58.4 Q 155.1 -61 150.6 -63.8 L 150.6 -63.8 L 150.6 -63.8 Q 147 -66.2 146.1 -67.2 L 146.1 -67.2 L 146.1 -67.2 Q 144.7 -68.8 144.7 -70.9 L 144.7 -70.9 L 144.7 -70.9 Q 144.7 -73 145.7 -75 L 145.7 -75 L 145.7 -75 Q 146.7 -76.9 148.5 -78.3 L 148.5 -78.3 L 148.5 -78.3 Q 152.3 -81.3 158.9 -81.3 L 158.9 -81.3 L 158.9 -81.3 Q 162.3 -81.3 164.3 -79.9 L 164.3 -79.9 L 164.3 -79.9 Q 166.3 -78.6 166.3 -76.3 L 166.3 -76.3 L 166.3 -76.3 Q 166.3 -74 164.9 -72.7 L 164.9 -72.7 L 164.9 -72.7 Q 163.5 -71.4 161.1 -71.4 L 161.1 -71.4 L 161.1 -71.4 Q 159.3 -71.4 158.5 -72 Z M 200 -70.4 L 210.5 -71.4 L 210.5 -71.4 Q 206.8 -63.2 206.8 -53.6 L 206.8 -53.6 L 206.8 -53.6 Q 205.4 -52.7 203.3 -52.7 L 203.3 -52.7 L 203.3 -52.7 Q 201.2 -52.7 199.9 -53.6 L 199.9 -53.6 L 199.9 -53.6 Q 198.6 -54.6 198.4 -55.6 L 198.4 -55.6 L 198.4 -55.6 Q 197.1 -54.2 195 -53.4 L 195 -53.4 L 195 -53.4 Q 192.9 -52.7 190.6 -52.7 L 190.6 -52.7 L 190.6 -52.7 Q 188.4 -52.7 186.5 -53.4 L 186.5 -53.4 L 186.5 -53.4 Q 184.5 -54.1 183 -55.7 L 183 -55.7 L 183 -55.7 Q 179.7 -59.3 179.7 -66 L 179.7 -66 L 179.7 -66 Q 179.7 -76.4 185.2 -82.6 L 185.2 -82.6 L 185.2 -82.6 Q 191 -89.1 201.1 -89.1 L 201.1 -89.1 L 201.1 -89.1 Q 208.1 -89.1 210.6 -85.4 L 210.6 -85.4 L 210.6 -85.4 Q 211.4 -84.3 211.4 -82.9 L 211.4 -82.9 L 211.4 -82.9 Q 211.4 -81.5 210.8 -80.3 L 210.8 -80.3 L 210.8 -80.3 Q 210.2 -79.2 209.2 -78.2 L 209.2 -78.2 L 209.2 -78.2 Q 207 -76.2 204.3 -76.2 L 204.3 -76.2 L 204.3 -76.2 Q 203.2 -76.2 202.1 -76.5 L 202.1 -76.5 L 202.1 -76.5 Q 202.3 -78.1 202.3 -79.9 L 202.3 -79.9 L 202.3 -79.9 Q 202.3 -81.7 202.2 -82.6 L 202.2 -82.6 L 202.2 -82.6 Q 202.1 -83.4 201.8 -84.1 L 201.8 -84.1 L 201.8 -84.1 Q 201.1 -85.5 199.6 -85.5 L 199.6 -85.5 L 199.6 -85.5 Q 198.1 -85.5 196.5 -83.9 L 196.5 -83.9 L 196.5 -83.9 Q 194.9 -82.3 193.6 -79.7 L 193.6 -79.7 L 193.6 -79.7 Q 190.7 -73.9 190.7 -66.9 L 190.7 -66.9 L 190.7 -66.9 Q 190.7 -63.6 191.9 -61.3 L 191.9 -61.3 L 191.9 -61.3 Q 193.3 -58.9 195.7 -58.9 L 195.7 -58.9 L 195.7 -58.9 Q 196.5 -58.9 197.3 -59.3 L 197.3 -59.3 L 197.3 -59.3 Q 198 -59.7 198.3 -60 L 198.3 -60 L 200 -70.4 Z M 215.3 -55.3 L 215.3 -55.3 L 215.3 -55.3 Q 214.1 -56.6 213.5 -58.7 L 213.5 -58.7 L 213.5 -58.7 Q 213 -60.9 213 -64.4 L 213 -64.4 L 213 -64.4 Q 213 -67.8 214.2 -71 L 214.2 -71 L 214.2 -71 Q 215.4 -74.2 217.6 -76.5 L 217.6 -76.5 L 217.6 -76.5 Q 222 -81.3 229.4 -81.3 L 229.4 -81.3 L 229.4 -81.3 Q 232.1 -81.3 234 -80.4 L 234 -80.4 L 242.9 -81.3 L 239.1 -61 L 239.1 -61 Q 238.9 -60.4 238.9 -59.2 L 238.9 -59.2 L 238.9 -59.2 Q 238.9 -58.1 239.6 -57.3 L 239.6 -57.3 L 239.6 -57.3 Q 240.3 -56.6 241.3 -56.5 L 241.3 -56.5 L 241.3 -56.5 Q 240.8 -54.7 238.9 -53.7 L 238.9 -53.7 L 238.9 -53.7 Q 237 -52.7 234.9 -52.7 L 234.9 -52.7 L 234.9 -52.7 Q 232.8 -52.7 231.3 -53.5 L 231.3 -53.5 L 231.3 -53.5 Q 229.9 -54.3 229.5 -55.6 L 229.5 -55.6 L 229.5 -55.6 Q 228.6 -54.3 226.9 -53.5 L 226.9 -53.5 L 226.9 -53.5 Q 225.1 -52.7 222.7 -52.7 L 222.7 -52.7 L 222.7 -52.7 Q 220.4 -52.7 218.5 -53.3 L 218.5 -53.3 L 218.5 -53.3 Q 216.5 -53.9 215.3 -55.3 Z M 226.3 -76.4 L 226.3 -76.4 L 226.3 -76.4 Q 225.7 -75.4 225.2 -73.8 L 225.2 -73.8 L 225.2 -73.8 Q 224.6 -72.3 223.8 -68 L 223.8 -68 L 223.8 -68 Q 222.9 -63.8 222.9 -60.8 L 222.9 -60.8 L 222.9 -60.8 Q 222.9 -57.8 223.4 -56.9 L 223.4 -56.9 L 223.4 -56.9 Q 223.9 -56 224.7 -56 L 224.7 -56 L 224.7 -56 Q 226.4 -56 227.6 -57.6 L 227.6 -57.6 L 227.6 -57.6 Q 228.8 -59.2 229.3 -62 L 229.3 -62 L 232 -77.2 L 232 -77.2 Q 230.9 -78.1 229.7 -78.1 L 229.7 -78.1 L 229.7 -78.1 Q 228.4 -78.1 227.6 -77.7 L 227.6 -77.7 L 227.6 -77.7 Q 226.9 -77.3 226.3 -76.4 Z M 258.1 -56.6 L 258.1 -56.6 L 258.1 -56.6 Q 256.5 -52.7 251.4 -52.7 L 251.4 -52.7 L 251.4 -52.7 Q 248.8 -52.7 247.1 -54.5 L 247.1 -54.5 L 247.1 -54.5 Q 245.8 -56 245.8 -57.7 L 245.8 -57.7 L 245.8 -57.7 Q 245.8 -61.6 247.6 -70.1 L 247.6 -70.1 L 251.4 -90.1 L 261.9 -91.1 L 256.9 -64.8 L 256.9 -64.8 Q 256 -61 256 -59.6 L 256 -59.6 L 256 -59.6 Q 256 -56.7 258.1 -56.6 Z M 275 -56.6 L 275 -56.6 L 275 -56.6 Q 273.4 -52.7 268.2 -52.7 L 268.2 -52.7 L 268.2 -52.7 Q 265.6 -52.7 264 -54.5 L 264 -54.5 L 264 -54.5 Q 262.6 -56 262.6 -57.7 L 262.6 -57.7 L 262.6 -57.7 Q 262.6 -61.6 264.4 -70.1 L 264.4 -70.1 L 268.2 -90.1 L 278.8 -91.1 L 273.7 -64.8 L 273.7 -64.8 Q 272.9 -61 272.9 -59.6 L 272.9 -59.6 L 272.9 -59.6 Q 272.9 -56.7 275 -56.6 Z M 300.5 -62.5 L 300.5 -62.5 L 300.5 -62.5 Q 301.8 -61.6 301.8 -59.7 L 301.8 -59.7 L 301.8 -59.7 Q 301.8 -57.7 300.8 -56.5 L 300.8 -56.5 L 300.8 -56.5 Q 299.8 -55.2 298.2 -54.4 L 298.2 -54.4 L 298.2 -54.4 Q 294.8 -52.7 291.3 -52.7 L 291.3 -52.7 L 291.3 -52.7 Q 287.7 -52.7 285.6 -53.4 L 285.6 -53.4 L 285.6 -53.4 Q 283.5 -54.2 282.1 -55.7 L 282.1 -55.7 L 282.1 -55.7 Q 279.3 -58.4 279.3 -63.5 L 279.3 -63.5 L 279.3 -63.5 Q 279.3 -71.3 283.6 -76.1 L 283.6 -76.1 L 283.6 -76.1 Q 288.1 -81.3 296.1 -81.3 L 296.1 -81.3 L 296.1 -81.3 Q 301 -81.3 303.5 -79.2 L 303.5 -79.2 L 303.5 -79.2 Q 305.3 -77.6 305.3 -75.1 L 305.3 -75.1 L 305.3 -75.1 Q 305.3 -65.9 289.5 -65.9 L 289.5 -65.9 L 289.5 -65.9 Q 289.3 -64.6 289.3 -63.4 L 289.3 -63.4 L 289.3 -63.4 Q 289.3 -61 290.4 -60.1 L 290.4 -60.1 L 290.4 -60.1 Q 291.4 -59.2 293.4 -59.2 L 293.4 -59.2 L 293.4 -59.2 Q 295.4 -59.2 297.5 -60.1 L 297.5 -60.1 L 297.5 -60.1 Q 299.6 -61 300.5 -62.5 Z M 289.9 -68.2 L 289.9 -68.2 L 289.9 -68.2 Q 293.5 -68.2 295.7 -70.4 L 295.7 -70.4 L 295.7 -70.4 Q 297.8 -72.6 297.8 -76.1 L 297.8 -76.1 L 297.8 -76.1 Q 297.8 -77.3 297.4 -78 L 297.4 -78 L 297.4 -78 Q 296.9 -78.6 296 -78.6 L 296 -78.6 L 296 -78.6 Q 295.2 -78.6 294.4 -78.3 L 294.4 -78.3 L 294.4 -78.3 Q 293.7 -77.9 292.9 -76.8 L 292.9 -76.8 L 292.9 -76.8 Q 290.9 -74.2 289.9 -68.2 Z M 323.3 -68.3 L 323.3 -68.3 L 323.3 -68.3 Q 325.2 -71.6 325.2 -75 L 325.2 -75 L 325.2 -75 Q 325.2 -77.3 323.6 -77.3 L 323.6 -77.3 L 323.6 -77.3 Q 322.4 -77.3 321.1 -75.1 L 321.1 -75.1 L 321.1 -75.1 Q 319.7 -73 319.3 -70.2 L 319.3 -70.2 L 316.6 -53.7 L 305.8 -52.7 L 311.1 -80.2 L 319.7 -81.3 L 318.8 -76 L 318.8 -76 Q 321.3 -81.3 327 -81.3 L 327 -81.3 L 327 -81.3 Q 330.1 -81.3 331.7 -79.7 L 331.7 -79.7 L 331.7 -79.7 Q 333.3 -78.1 333.3 -74.9 L 333.3 -74.9 L 333.3 -74.9 Q 333.3 -71.7 331.2 -69.7 L 331.2 -69.7 L 331.2 -69.7 Q 329.1 -67.7 325.5 -67.7 L 325.5 -67.7 L 325.5 -67.7 Q 324 -67.7 323.3 -68.3 Z M 350.7 -59.6 L 350.7 -59.6 L 350.7 -59.6 Q 348 -56.8 343.1 -56.8 L 343.1 -56.8 L 343.1 -56.8 Q 336.9 -56.8 335.6 -61.3 L 335.6 -61.3 L 335.6 -61.3 Q 335.1 -62.6 335.1 -64.1 L 335.1 -64.1 L 335.1 -64.1 Q 335.1 -65.7 335.5 -67.2 L 335.5 -67.2 L 337.9 -80.2 L 348.5 -81.3 L 345.6 -66.1 L 345.6 -66.1 Q 345.5 -65.5 345.3 -64.7 L 345.3 -64.7 L 345.3 -64.7 Q 345.2 -64 345.2 -63.2 L 345.2 -63.2 L 345.2 -63.2 Q 345.2 -62.5 345.4 -62 L 345.4 -62 L 345.4 -62 Q 345.7 -61.5 346.1 -61.2 L 346.1 -61.2 L 346.1 -61.2 Q 346.7 -60.8 347.8 -60.8 L 347.8 -60.8 L 347.8 -60.8 Q 348.9 -60.8 349.9 -62.1 L 349.9 -62.1 L 349.9 -62.1 Q 350.9 -63.5 351.3 -65.8 L 351.3 -65.8 L 354.2 -80.2 L 364.4 -81.3 L 360.5 -60.8 L 360.5 -60.8 Q 358.6 -50.8 354.6 -46.9 L 354.6 -46.9 L 354.6 -46.9 Q 352.6 -44.9 350 -44 L 350 -44 L 350 -44 Q 347.4 -43.3 344 -43.3 L 344 -43.3 L 344 -43.3 Q 338.5 -43.3 335.4 -45 L 335.4 -45 L 335.4 -45 Q 332.3 -46.7 332.3 -49.5 L 332.3 -49.5 L 332.3 -49.5 Q 332.3 -51.7 333.9 -52.9 L 333.9 -52.9 L 333.9 -52.9 Q 335.5 -54.1 338 -54.1 L 338 -54.1 L 338 -54.1 Q 340.2 -54.1 341.9 -53.2 L 341.9 -53.2 L 341.9 -53.2 Q 342.8 -52.6 343.3 -51.9 L 343.3 -51.9 L 343.3 -51.9 Q 342.1 -50.8 342.1 -49.1 L 342.1 -49.1 L 342.1 -49.1 Q 342.1 -46.8 344.2 -46.8 L 344.2 -46.8 L 344.2 -46.8 Q 347.6 -46.8 349.6 -54.7 L 349.6 -54.7 L 349.6 -54.7 Q 350.2 -57.1 350.7 -59.6 Z" fill="url(#editing-gradient-gradient)"></path></g></g><style>text {
  font-size: 64px;
  font-family: Arial Black;
  dominant-baseline: central;
  text-anchor: middle;
}</style></svg>
